<?xml version="1.0" encoding="utf-8"?>
<!-- Generator: Adobe Illustrator 20.1.0, SVG Export Plug-In . SVG Version: 6.00 Build 0)  -->
<svg version="1.1" id="Layer_1" xmlns="http://www.w3.org/2000/svg" xmlns:xlink="http://www.w3.org/1999/xlink" x="0px" y="0px"
	 viewBox="0 0 651 514" style="enable-background:new 0 0 651 514;" xml:space="preserve">
<style type="text/css">
	.st0{fill:#110CE8;}
	.st1{fill:#52DD59;}
	.st2{fill:#CDDB1D;}
	.st3{fill:#12379E;}
	.st4{fill:#16A7B2;}
	.st5{fill:#A71CF7;}
	.st6{fill:#F90047;}
</style>
<g id="Oklahoma">
	<polygon class="st0" points="435.1,411.3 447.5,432.7 435.1,454.1 410.4,454.1 398.1,432.7 410.4,411.3 	"/>
	<polygon class="st0" points="447.5,389.9 435.1,411.2 447.5,432.6 472.2,432.6 484.5,411.2 472.2,389.9 	"/>
	<polygon class="st0" points="435.1,368.4 447.5,389.8 435.1,411.2 410.4,411.2 398.1,389.8 410.4,368.4 	"/>
	<polygon class="st0" points="447.5,346.9 435.1,368.3 447.5,389.7 472.2,389.7 484.5,368.3 472.2,346.9 	"/>
	<polygon class="st0" points="435.1,325.5 447.5,346.8 435.1,368.2 410.4,368.2 398.1,346.8 410.4,325.5 	"/>
	<polygon class="st0" points="435.1,282.5 447.5,303.9 435.1,325.3 410.4,325.3 398.1,303.9 410.4,282.5 	"/>
	<polygon class="st0" points="435.1,239.6 447.5,261 435.1,282.4 410.4,282.4 398.1,261 410.4,239.6 	"/>
	<polygon class="st0" points="435.1,196.7 447.5,218.1 435.1,239.5 410.4,239.5 398.1,218.1 410.4,196.7 	"/>
	<polygon class="st0" points="435.1,153.8 447.5,175.2 435.1,196.5 410.4,196.5 398.1,175.2 410.4,153.8 	"/>
	<polygon class="st0" points="373.4,261.1 361,282.5 373.4,303.8 398.1,303.8 410.4,282.5 398.1,261.1 	"/>
	<polygon class="st0" points="373.4,218.2 361,239.5 373.4,260.9 398.1,260.9 410.4,239.5 398.1,218.2 	"/>
	<polygon class="st0" points="373.4,175.2 361,196.6 373.4,218 398.1,218 410.4,196.6 398.1,175.2 	"/>
</g>
<g id="Texas">
	<polygon class="st1" points="361,282.5 373.4,303.9 361,325.3 336.4,325.3 324,303.9 336.4,282.5 	"/>
	<polygon class="st1" points="361,239.6 373.4,261 361,282.4 336.4,282.4 324,261 336.4,239.6 	"/>
	<polygon class="st1" points="299.3,304 287,325.4 299.3,346.8 324,346.8 336.4,325.4 324,304 	"/>
	<polygon class="st1" points="287,282.5 299.3,303.9 287,325.3 262.3,325.3 249.9,303.9 262.3,282.5 	"/>
	<polygon class="st1" points="299.3,261.1 287,282.5 299.3,303.8 324,303.8 336.4,282.5 324,261.1 	"/>
</g>
<g id="Arizona">
	<polygon class="st2" points="361,325.5 373.4,346.8 361,368.2 336.4,368.2 324,346.8 336.4,325.5 	"/>
	<polygon class="st2" points="287,368.4 299.3,389.8 287,411.2 262.3,411.2 249.9,389.8 262.3,368.4 	"/>
	<polygon class="st2" points="299.3,346.9 287,368.3 299.3,389.7 324,389.7 336.4,368.3 324,346.9 	"/>
	<polygon class="st2" points="287,325.5 299.3,346.8 287,368.2 262.3,368.2 249.9,346.8 262.3,325.5 	"/>
	<polygon class="st2" points="225.2,389.9 212.9,411.2 225.2,432.6 249.9,432.6 262.3,411.2 249.9,389.9 	"/>
	<polygon class="st2" points="225.2,346.9 212.9,368.3 225.2,389.7 249.9,389.7 262.3,368.3 249.9,346.9 	"/>
	<polygon class="st2" points="225.2,304 212.9,325.4 225.2,346.8 249.9,346.8 262.3,325.4 249.9,304 	"/>
</g>
<g id="Virginia">
	<polygon class="st3" points="361,196.7 373.4,218.1 361,239.5 336.4,239.5 324,218.1 336.4,196.7 	"/>
	<polygon class="st3" points="361,153.8 373.4,175.2 361,196.5 336.4,196.5 324,175.2 336.4,153.8 	"/>
	<polygon class="st3" points="373.4,132.3 361,153.7 373.4,175.1 398.1,175.1 410.4,153.7 398.1,132.3 	"/>
	<polygon class="st3" points="287,239.6 299.3,261 287,282.4 262.3,282.4 249.9,261 262.3,239.6 	"/>
	<polygon class="st3" points="299.3,218.2 287,239.5 299.3,260.9 324,260.9 336.4,239.5 324,218.2 	"/>
	<polygon class="st3" points="287,196.7 299.3,218.1 287,239.5 262.3,239.5 249.9,218.1 262.3,196.7 	"/>
	<polygon class="st3" points="299.3,175.2 287,196.6 299.3,218 324,218 336.4,196.6 324,175.2 	"/>
	<polygon class="st3" points="287,153.8 299.3,175.2 287,196.5 262.3,196.5 249.9,175.2 262.3,153.8 	"/>
	<polygon class="st3" points="299.3,132.3 287,153.7 299.3,175.1 324,175.1 336.4,153.7 324,132.3 	"/>
	<polygon class="st3" points="287,110.8 299.3,132.2 287,153.6 262.3,153.6 249.9,132.2 262.3,110.8 	"/>
	<polygon class="st3" points="225.2,261.1 212.9,282.5 225.2,303.8 249.9,303.8 262.3,282.5 249.9,261.1 	"/>
	<polygon class="st3" points="212.9,239.6 225.2,261 212.9,282.4 188.2,282.4 175.9,261 188.2,239.6 	"/>
	<polygon class="st3" points="225.2,218.2 212.9,239.5 225.2,260.9 249.9,260.9 262.3,239.5 249.9,218.2 	"/>
	<polygon class="st3" points="212.9,196.7 225.2,218.1 212.9,239.5 188.2,239.5 175.9,218.1 188.2,196.7 	"/>
	<polygon class="st3" points="225.2,175.2 212.9,196.6 225.2,218 249.9,218 262.3,196.6 249.9,175.2 	"/>
	<polygon class="st3" points="212.9,153.8 225.2,175.2 212.9,196.5 188.2,196.5 175.9,175.2 188.2,153.8 	"/>
	<polygon class="st3" points="225.2,132.3 212.9,153.7 225.2,175.1 249.9,175.1 262.3,153.7 249.9,132.3 	"/>
</g>
<g id="New_York">
	<polygon class="st4" points="583.3,110.8 595.6,132.2 583.3,153.6 558.6,153.6 546.2,132.2 558.6,110.8 	"/>
	<polygon class="st4" points="509.2,110.8 521.5,132.2 509.2,153.6 484.5,153.6 472.2,132.2 484.5,110.8 	"/>
	<polygon class="st4" points="521.5,89.4 509.2,110.8 521.5,132.1 546.2,132.1 558.6,110.8 546.2,89.4 	"/>
	<polygon class="st4" points="435.1,110.8 447.5,132.2 435.1,153.6 410.4,153.6 398.1,132.2 410.4,110.8 	"/>
	<polygon class="st4" points="447.5,89.4 435.1,110.8 447.5,132.1 472.2,132.1 484.5,110.8 472.2,89.4 	"/>
	<polygon class="st4" points="361,110.8 373.4,132.2 361,153.6 336.4,153.6 324,132.2 336.4,110.8 	"/>
	<polygon class="st4" points="373.4,89.4 361,110.8 373.4,132.1 398.1,132.1 410.4,110.8 398.1,89.4 	"/>
	<polygon class="st4" points="361,67.9 373.4,89.3 361,110.7 336.4,110.7 324,89.3 336.4,67.9 	"/>
	<polygon class="st4" points="299.3,89.4 287,110.8 299.3,132.1 324,132.1 336.4,110.8 324,89.4 	"/>
	<polygon class="st4" points="287,67.9 299.3,89.3 287,110.7 262.3,110.7 249.9,89.3 262.3,67.9 	"/>
	<polygon class="st4" points="299.3,46.5 287,67.8 299.3,89.2 324,89.2 336.4,67.8 324,46.5 	"/>
	<polygon class="st4" points="287,25 299.3,46.4 287,67.8 262.3,67.8 249.9,46.4 262.3,25 	"/>
	<polygon class="st4" points="212.9,110.8 225.2,132.2 212.9,153.6 188.2,153.6 175.9,132.2 188.2,110.8 	"/>
	<polygon class="st4" points="225.2,89.4 212.9,110.8 225.2,132.1 249.9,132.1 262.3,110.8 249.9,89.4 	"/>
	<polygon class="st4" points="212.9,67.9 225.2,89.3 212.9,110.7 188.2,110.7 175.9,89.3 188.2,67.9 	"/>
	<polygon class="st4" points="225.2,46.5 212.9,67.8 225.2,89.2 249.9,89.2 262.3,67.8 249.9,46.5 	"/>
</g>
<g id="Iowa">
	<polygon class="st5" points="212.9,325.5 225.2,346.8 212.9,368.2 188.2,368.2 175.9,346.8 188.2,325.5 	"/>
	<polygon class="st5" points="212.9,282.5 225.2,303.9 212.9,325.3 188.2,325.3 175.9,303.9 188.2,282.5 	"/>
	<polygon class="st5" points="151.2,346.9 138.8,368.3 151.2,389.7 175.9,389.7 188.2,368.3 175.9,346.9 	"/>
	<polygon class="st5" points="151.2,304 138.8,325.4 151.2,346.8 175.9,346.8 188.2,325.4 175.9,304 	"/>
	<polygon class="st5" points="151.2,261.1 138.8,282.5 151.2,303.8 175.9,303.8 188.2,282.5 175.9,261.1 	"/>
	<polygon class="st5" points="151.2,218.2 138.8,239.5 151.2,260.9 175.9,260.9 188.2,239.5 175.9,218.2 	"/>
</g>
<g id="California">
	<polygon class="st6" points="138.8,196.7 151.2,218.1 138.8,239.5 114.1,239.5 101.8,218.1 114.1,196.7 	"/>
	<polygon class="st6" points="151.2,175.2 138.8,196.6 151.2,218 175.9,218 188.2,196.6 175.9,175.2 	"/>
	<polygon class="st6" points="138.8,153.8 151.2,175.2 138.8,196.5 114.1,196.5 101.8,175.2 114.1,153.8 	"/>
	<polygon class="st6" points="151.2,132.3 138.8,153.7 151.2,175.1 175.9,175.1 188.2,153.7 175.9,132.3 	"/>
	<polygon class="st6" points="138.8,110.8 151.2,132.2 138.8,153.6 114.1,153.6 101.8,132.2 114.1,110.8 	"/>
	<polygon class="st6" points="151.2,89.4 138.8,110.8 151.2,132.1 175.9,132.1 188.2,110.8 175.9,89.4 	"/>
	<polygon class="st6" points="138.8,67.9 151.2,89.3 138.8,110.7 114.1,110.7 101.8,89.3 114.1,67.9 	"/>
	<polygon class="st6" points="77.1,175.2 64.7,196.6 77.1,218 101.8,218 114.1,196.6 101.8,175.2 	"/>
	<polygon class="st6" points="77.1,132.3 64.7,153.7 77.1,175.1 101.8,175.1 114.1,153.7 101.8,132.3 	"/>
</g>
</svg>
